<svg width="300" height="203" xmlns="http://www.w3.org/2000/svg" xmlns:svg="http://www.w3.org/2000/svg">
  <g class="layer">
    <title>Layer 1</title>
    <g fill="#fe904d" id="SvgjsG2011" transform="matrix(0.17341 0 0 0.17341 80.0118 -7.9075)">
      <g id="svg_1" xmlns="http://www.w3.org/2000/svg">
        <circle cx="460.5" cy="242.1" id="svg_2" r="46.8"/>
        <path d="m606.2,443.4c-13,-2.2 -65,-11.3 -67.9,-12.2c-3.3,-1.1 0,0 -1.1,-1.7c-1.1,-1.7 -46.5,-97.4 -50.9,-102.4c-4.4,-5 -16.6,-17.7 -33.8,-23.3c-17.2,-5.5 -34.3,3.3 -34.3,3.3s-85.2,48.7 -90.8,51.5c-5.5,2.8 -10.5,12.7 -10.5,12.7l-39.8,74.8c-3.3,4.1 -5.2,9.3 -5.2,14.9c0,13.3 10.8,24.1 24.1,24.1c11.4,0 20.9,-7.9 23.4,-18.5l37.1,-70.2l23.3,-13c-1.7,5 -23,108.8 -23,108.8l-21.6,122.9l-75.6,91.1c-5.4,5.1 -8.9,12.3 -8.9,20.3c0,15.3 12.4,27.8 27.8,27.8c2.5,0 4.9,-0.3 7.2,-1c5.2,-0.2 10.1,-3 12.9,-7.7c0.9,-1 1.8,-2 2.6,-3.1c13.9,-16.3 83.6,-98.2 90.3,-106.2c7.5,-8.9 9.4,-13.3 10.5,-19.1c1.1,-5.8 13.6,-80.8 13.6,-80.8l71.4,71.4l0,125.9l0.1,0c1.4,14.1 13.3,25.1 27.8,25.1c14.5,0 26.4,-11 27.8,-25.1l0.1,0c0,0 0,-0.9 0,-2.4c0,-0.1 0,-0.3 0,-0.4c0,-0.2 0,-0.4 0,-0.5c-0.1,-19.2 -0.7,-114.7 0,-136.4c0.8,-24.1 -7.8,-29.3 -9.7,-31.5c-1.9,-2.2 -68.6,-73.1 -68.6,-73.1l14.7,-71.1c0,0 19.1,37.4 21,41.5c1.9,4.1 8,11.6 14.4,13c6.4,1.4 85.8,17.4 85.8,17.4l0,-0.2c1.2,0.2 2.3,0.4 3.6,0.4c13.1,0 23.7,-10.6 23.7,-23.7c-0.1,-12.2 -9.5,-22.1 -21.5,-23.3z" id="svg_3"/>
        <path d="m73.8,426.2c8.8,0 15.9,-7 16,-15.8c0.1,-8.5 0.5,-17 1.2,-25.4c0.8,-8.8 -5.8,-16.6 -14.6,-17.4c-8.9,-0.8 -16.6,5.8 -17.4,14.6c-0.8,9.2 -1.3,18.5 -1.4,27.8c-0.1,8.8 7,16.1 15.8,16.2c0.3,0 0.4,0 0.4,0z" id="svg_4"/>
        <path d="m103.8,510.8c-2.4,-8.1 -4.5,-16.4 -6.3,-24.6c-1.9,-8.6 -10.4,-14.1 -19.1,-12.3c-8.7,1.9 -14.1,10.4 -12.3,19.1c2,9 4.3,18.1 6.9,27c2.1,7 8.4,11.5 15.4,11.5c1.5,0 3.1,-0.2 4.6,-0.7c8.5,-2.6 13.3,-11.5 10.8,-20z" id="svg_5"/>
        <path d="m409.8,78.2c0.3,0 0.5,0 0.8,0c5.1,-0.2 10.3,-0.4 15.5,-0.4c3.3,0 6.7,0 10,0.1c9.1,0.3 16.2,-6.7 16.5,-15.6c0.3,-8.8 -6.7,-16.2 -15.6,-16.5c-3.5,-0.1 -7,-0.2 -10.5,-0.2c-5.8,0 -11.6,0.1 -17.4,0.4c-8.8,0.4 -15.7,7.9 -15.3,16.8c0.4,8.7 7.5,15.4 16,15.4z" id="svg_6"/>
        <path d="m511.5,88.7c8.2,2.1 16.4,4.6 24.3,7.3c1.7,0.6 3.5,0.9 5.2,0.9c6.7,0 12.9,-4.2 15.2,-10.8c2.9,-8.4 -1.6,-17.5 -9.9,-20.4c-8.7,-3 -17.7,-5.7 -26.7,-8.1c-8.6,-2.2 -17.3,2.9 -19.6,11.5c-2.2,8.6 2.9,17.4 11.5,19.6z" id="svg_7"/>
        <path d="m305.7,99.1c1.8,0 3.7,-0.3 5.5,-1c7.9,-2.9 16,-5.5 24.2,-7.8c8.5,-2.4 13.5,-11.2 11.1,-19.8c-2.4,-8.5 -11.2,-13.5 -19.8,-11.1c-8.9,2.5 -17.8,5.4 -26.5,8.5c-8.3,3 -12.6,12.2 -9.6,20.5c2.4,6.6 8.6,10.7 15.1,10.7z" id="svg_8"/>
        <path d="m86,320.6c1.6,0.5 3.3,0.8 5,0.8c6.7,0 13,-4.3 15.2,-11.1c2.6,-8 5.6,-16.1 8.8,-23.9c3.4,-8.2 -0.5,-17.5 -8.7,-20.9c-8.2,-3.4 -17.5,0.6 -20.9,8.7c-3.5,8.6 -6.8,17.4 -9.6,26.2c-2.8,8.4 1.8,17.5 10.2,20.2z" id="svg_9"/>
        <path d="m133.7,580.8c-4.4,-7.7 -14.2,-10.4 -21.9,-6c-7.7,4.4 -10.4,14.2 -6,21.9c4.6,8 9.5,16 14.7,23.7c3.1,4.6 8.2,7.1 13.3,7.1c3.1,0 6.2,-0.9 9,-2.7c7.3,-4.9 9.3,-14.9 4.3,-22.3c-4.7,-7.1 -9.2,-14.4 -13.4,-21.7z" id="svg_10"/>
        <path d="m644.6,117.3c-7.5,-5.5 -15.2,-10.8 -23.1,-15.7c-7.5,-4.7 -17.4,-2.4 -22.1,5.1c-4.7,7.5 -2.4,17.4 5.1,22.1c7.2,4.5 14.2,9.3 21,14.3c2.9,2.1 6.2,3.1 9.5,3.1c4.9,0 9.8,-2.3 12.9,-6.5c5.4,-7.2 3.8,-17.2 -3.3,-22.4z" id="svg_11"/>
        <path d="m225.6,105.3c-7.7,5 -15.4,10.4 -22.8,16.1c-7,5.4 -8.4,15.4 -3,22.5c3.1,4.1 7.9,6.3 12.7,6.3c3.4,0 6.8,-1.1 9.7,-3.3c6.7,-5.1 13.7,-10.1 20.8,-14.7c7.4,-4.8 9.5,-14.8 4.7,-22.2c-4.8,-7.5 -14.7,-9.5 -22.1,-4.7z" id="svg_12"/>
        <path d="m215.8,677c-6.6,-5.3 -13.1,-10.9 -19.2,-16.7c-6.5,-6 -16.6,-5.7 -22.7,0.8c-6,6.5 -5.7,16.6 0.8,22.7c6.7,6.3 13.8,12.4 21.1,18.3c3,2.4 6.5,3.5 10,3.5c4.7,0 9.3,-2 12.5,-6c5.5,-6.9 4.4,-17 -2.5,-22.6z" id="svg_13"/>
        <path d="m165.2,177c-6.8,-5.7 -16.9,-4.7 -22.6,2.1c-5.9,7.1 -11.6,14.6 -17,22.1c-5.1,7.2 -3.4,17.2 3.8,22.4c2.8,2 6.1,3 9.3,3c5,0 9.9,-2.3 13.1,-6.7c4.9,-6.9 10.1,-13.7 15.5,-20.2c5.7,-7 4.8,-17.1 -2.1,-22.7z" id="svg_14"/>
        <circle cx="702.2" cy="194.7" id="svg_15" r="47.4"/>
      </g>
    </g>
    <g fill="#fe904d" id="SvgjsG2012" transform="matrix(3.94218 0 0 3.94218 -6.38633 124.289)">
      <path d="m11.12,11.12q0.3,0 0.51,0.21t0.21,0.51l0,1.48q0,0.28 -0.21,0.49t-0.51,0.21l-6.58,0l0,5.12q0,0.28 -0.2,0.49t-0.5,0.21l-1.52,0q-0.28,0 -0.49,-0.21t-0.21,-0.49l0,-7.3q0,-0.3 0.21,-0.51t0.49,-0.21l8.8,0zm0.9,-6.12q0.28,0 0.49,0.21t0.21,0.49l0,1.46q0,0.3 -0.21,0.51t-0.49,0.21l-9.7,0q-0.28,0 -0.49,-0.21t-0.21,-0.51l0,-1.46q0,-0.28 0.21,-0.49t0.49,-0.21l9.7,0zm9.4,0q3.28,0 5.38,2.2q2.06,2.16 2.06,5.3t-2.06,5.3q-2.1,2.2 -5.38,2.2t-5.38,-2.2q-2.06,-2.16 -2.06,-5.3t2.06,-5.3q2.1,-2.2 5.38,-2.2zm0,12.14q2.06,0 3.32,-1.32q1.22,-1.28 1.22,-3.31t-1.24,-3.34t-3.3,-1.31t-3.3,1.31t-1.24,3.34t1.22,3.31q1.26,1.32 3.32,1.32zm16.44,-12.14q3.28,0 5.38,2.2q2.06,2.16 2.06,5.3t-2.06,5.3q-2.1,2.2 -5.38,2.2t-5.38,-2.2q-2.06,-2.16 -2.06,-5.3t2.06,-5.3q2.1,-2.2 5.38,-2.2zm0,12.14q2.06,0 3.32,-1.32q1.22,-1.28 1.22,-3.31t-1.24,-3.34t-3.3,-1.31t-3.3,1.31t-1.24,3.34t1.22,3.31q1.26,1.32 3.32,1.32zm19.98,-12.14q0.28,0 0.48,0.21t0.2,0.49l0,1.44q0,0.28 -0.2,0.49t-0.48,0.21l-3.94,0l0,11.14q0,0.28 -0.21,0.49t-0.49,0.21l-1.5,0q-0.3,0 -0.5,-0.21t-0.2,-0.49l0,-11.14l-3.94,0q-0.28,0 -0.49,-0.21t-0.21,-0.49l0,-1.44q0,-0.28 0.21,-0.49t0.49,-0.21l10.78,0zm4.78,0q0.28,0 0.49,0.21t0.21,0.49l0,13.28q0,0.28 -0.21,0.49t-0.49,0.21l-1.5,0q-0.28,0 -0.49,-0.21t-0.21,-0.49l0,-13.28q0,-0.28 0.21,-0.49t0.49,-0.21l1.5,0zm14.4,0q0.3,0 0.5,0.21t0.2,0.49l0,1.44q0,0.28 -0.2,0.49t-0.5,0.21l-7.56,0l0,3.06l6.68,0q0.3,0 0.5,0.21t0.2,0.49l0,1.46q0,0.28 -0.2,0.49t-0.5,0.21l-6.68,0l0,3.08l7.56,0q0.3,0 0.5,0.21t0.2,0.49l0,1.44q0,0.28 -0.2,0.49t-0.5,0.21l-9.76,0q-0.28,0 -0.49,-0.21t-0.21,-0.49l0,-13.28q0,-0.28 0.21,-0.49t0.49,-0.21l9.76,0z" id="svg_16"/>
    </g>
  </g>
</svg>
